Coordinates
version=1
nRows=19
nColumns=36
inDegrees=yes

Units are S.I. units (second, meters, Newtons, ...)
If the header above contains a line with 'inDegrees', this indicates whether rotational values are in degrees (yes) or radians (no).

endheader
time	pelvis_tilt	pelvis_list	pelvis_rotation	pelvis_tx	pelvis_ty	pelvis_tz	hip_flexion_r	hip_adduction_r	hip_rotation_r	knee_angle_r	knee_angle_r_beta	ankle_angle_r	subtalar_angle_r	mtp_angle_r	hip_flexion_l	hip_adduction_l	hip_rotation_l	knee_angle_l	knee_angle_l_beta	ankle_angle_l	subtalar_angle_l	mtp_angle_l	lumbar_extension	lumbar_bending	lumbar_rotation	arm_flex_r	arm_add_r	arm_rot_r	elbow_flex_r	pro_sup_r	arm_flex_l	arm_add_l	arm_rot_l	elbow_flex_l	pro_sup_l
      0.36000000	      0.21692776	     -3.39562612	      3.54431167	      0.33622443	      0.96628450	     -0.16695933	     -3.11786085	     10.40056873	      2.88895108	      3.05086313	      0.05324761	      7.24660933	     -9.54758594	     -6.60027249	     28.16367246	     -5.60557947	     -2.37681627	     51.65449487	      0.90154101	     -0.17710474	    -12.91906778	     -6.60027249	     -5.36667179	      2.15500319	      8.99131995	      8.04302783	     -6.69679012	    -12.50145123	     33.02974988	    104.40686448	     -3.13187194	     -1.00174686	     -6.26005409	     20.25309696	    101.21073820
      0.37000000	      0.15129219	     -3.26803541	      3.01119697	      0.34602715	      0.96601962	     -0.16690585	     -3.96734012	     10.21344909	      3.25270442	      2.66991276	      0.04659877	      7.77783856	     -8.98266581	     -6.61722442	     28.40476838	     -5.44882732	     -3.01645663	     48.39706765	      0.84468818	     -0.24657623	    -12.52075342	     -6.61722442	     -5.25237870	      2.09414842	      9.77845327	      8.69120558	     -6.81131686	    -12.71506219	     33.95463570	    104.60492213	     -4.15985953	     -0.90815568	     -7.26440798	     19.47115585	    100.85698373
      0.38000000	      0.06414529	     -3.18266586	      2.50962545	      0.35597358	      0.96553526	     -0.16691867	     -4.78772459	     10.06125113	      3.53662298	      2.30329528	      0.04020009	      8.31415943	     -8.38272614	     -6.63454928	     28.55564642	     -5.30618853	     -3.57258062	     44.91754861	      0.78395912	     -0.42843409	    -12.05399128	     -6.63454928	     -5.07819237	      2.07461269	     10.46246729	      9.31829931	     -6.87479359	    -12.88835223	     34.92850719	    104.72857800	     -5.27993119	     -0.83529071	     -8.25595373	     18.81414977	    100.44647692
      0.39000000	     -0.21178272	     -3.17988803	      2.12810428	      0.36595878	      0.96452535	     -0.16713159	     -5.37444488	      9.99136668	      3.78526061	      1.97196752	      0.03441733	      8.67341012	     -7.94597783	     -6.64461486	     28.87183667	     -5.16414413	     -3.97373483	     41.30266985	      0.72086758	     -0.60191566	    -11.47377994	     -6.64461486	     -4.64080822	      2.15478418	     10.93025460	      9.93760763	     -6.92174474	    -12.93268279	     35.83450991	    104.78182649	     -6.50544631	     -0.81783776	     -8.88982649	     18.26116080	    100.15141266
      0.40000000	     -0.10551890	     -3.14462725	      1.78218138	      0.37610571	      0.96390673	     -0.16750946	     -6.36594525	      9.86492249	      3.49031232	      1.70227849	      0.02971036	      9.85184025	     -6.33472382	     -6.71291960	     28.57365963	     -4.99639390	     -4.49475878	     37.34126274	      0.65172798	     -1.27652991	    -11.17824928	     -6.71291960	     -4.74885815	      2.19023727	     11.53565988	     10.46793535	     -6.89957192	    -13.63741326	     37.01733938	    105.49938509	     -7.70770654	     -0.43629994	    -12.22877231	     18.81856669	     99.05558055
      0.41000000	     -0.37825222	     -3.20295825	      1.48501198	      0.38619720	      0.96254148	     -0.16792407	     -6.95013237	      9.85423904	      3.80061453	      1.41368891	      0.02467353	     10.19696449	     -6.16766427	     -6.72437301	     28.70199609	     -4.88100838	     -4.90815778	     33.38209095	      0.58262740	     -1.49574163	    -10.20281419	     -6.72437301	     -4.34354714	      2.34198600	     11.96011701	     11.03677251	     -6.99944656	    -13.41769897	     37.81435897	    105.57770578	     -8.90424903	     -0.46012655	    -12.65145111	     18.46312587	     98.87057622
      0.42000000	     -0.43274586	     -3.25959359	      1.23613567	      0.39641147	      0.96130235	     -0.16847091	     -7.75847685	      9.82440311	      3.73001103	      1.17822048	      0.02056383	     10.99240223	     -5.25996638	     -6.79104411	     28.46886356	     -4.77755297	     -5.51366029	     29.26088061	      0.51069871	     -1.67816801	     -9.04023567	     -6.79104411	     -4.22464975	      2.49244588	     12.33390474	     11.61894116	     -7.05869558	    -13.41287805	     38.76840802	    106.13140709	    -10.17751078	     -0.24019159	    -14.78208844	     18.85051027	     98.38380241
      0.43000000	     -0.64834545	     -3.37621510	      1.02208949	      0.40652109	      0.95968277	     -0.16900507	     -8.36384126	      9.88052904	      3.93343397	      0.98100204	      0.01712172	     11.45268026	     -5.08209092	     -6.80967118	     28.38371462	     -4.70854217	     -6.12239899	     25.10363809	      0.43814114	     -1.78510298	     -7.73948566	     -6.80967118	     -3.92846794	      2.70926436	     12.69941705	     12.14407133	     -7.13248618	    -13.22935683	     39.66796150	    106.19344424	    -11.31903088	     -0.26934286	    -15.20470130	     18.65539197	     98.25299909
      0.44000000	     -1.12783674	     -3.53774534	      0.82904216	      0.41663062	      0.95752381	     -0.16962826	     -8.64059955	      9.97167580	      4.11880151	      0.85567030	      0.01493426	     11.79148981	     -4.86926453	     -6.81864511	     28.56313853	     -4.60282708	     -6.47842977	     21.00477381	      0.36660246	     -1.71605215	     -6.34008471	     -6.81864511	     -3.29929361	      2.97099765	     12.96444203	     12.60826728	     -7.15128456	    -13.10464029	     40.51798912	    106.16824856	    -12.54242903	     -0.31905710	    -15.46879056	     18.41150971	     98.11832837
      0.45000000	     -1.14464012	     -3.63999620	      0.64007616	      0.42692951	      0.95593579	     -0.17026684	     -9.44079815	      9.98645147	      3.98002697	      0.73301682	      0.01279356	     12.64135134	     -4.09664838	     -6.84780826	     28.16322307	     -4.57386705	     -7.69004148	     16.97947219	      0.29634770	     -1.22434251	     -3.75559739	     -6.84780826	     -3.28483418	      3.14011332	     13.37470276	     13.00460879	     -7.18172202	    -13.06712367	     41.57572954	    106.29692233	    -13.60299179	     -0.28707528	    -16.18397898	     18.38968987	     97.97629825
      0.46000000	     -1.43206460	     -3.80833505	      0.47460073	      0.43715472	      0.95380603	     -0.17092001	     -9.89378753	     10.06955898	      3.86071427	      0.68330770	      0.01192597	     13.34801865	     -3.32069857	     -6.89130952	     28.15901569	     -4.58151578	     -8.89431644	     13.34332793	      0.23288501	     -0.45005640	     -0.72942100	     -6.89130952	     -2.93806608	      3.36619744	     13.65055645	     13.41053808	     -7.17736662	    -12.97153415	     42.44750931	    106.51367514	    -14.72476804	     -0.28597465	    -16.91927396	     18.36229723	     97.93186774
      0.47000000	     -1.72302712	     -3.99230649	      0.34272510	      0.44729587	      0.95159153	     -0.17171021	    -10.32481898	     10.17156315	      3.98027612	      0.64450974	      0.01124882	     13.81291388	     -3.22973596	     -6.90407512	     28.10086757	     -4.46515798	     -9.27395416	      9.85507987	      0.17200359	     -0.20483674	      1.18841869	     -6.90407512	     -2.60367252	      3.62510622	     13.91279241	     13.77694101	     -7.21790317	    -12.75593760	     43.28972687	    106.55058281	    -15.72232447	     -0.34532947	    -17.14871181	     18.11909262	     97.86622986
      0.48000000	     -2.01347667	     -4.16569936	      0.19683513	      0.45749959	      0.94932731	     -0.17249865	    -10.74727381	     10.24683715	      4.11495007	      0.62966264	      0.01098969	     14.24863848	     -3.01947094	     -6.91450337	     28.11163431	     -4.37475037	     -9.56342144	      6.89881438	      0.12040703	      0.20266610	      3.18381934	     -6.91450337	     -2.27394662	      3.84117359	     14.17234235	     14.09674023	     -7.22762634	    -12.55341339	     44.12807302	    106.58877628	    -16.63267898	     -0.42258655	    -17.39778974	     17.87191509	     97.80279883
      0.49000000	     -2.26930627	     -4.33612378	      0.04610035	      0.46772099	      0.94705865	     -0.17328344	    -11.18135292	     10.30989293	      4.27427603	      0.64441855	      0.01124723	     14.65448939	     -2.75903219	     -6.92361275	     28.18690420	     -4.33696935	     -9.74211387	      4.62017754	      0.08063731	      0.75210965	      4.98398242	     -6.92361275	     -2.02606076	      4.03141741	     14.38627644	     14.41584298	     -7.19573625	    -12.35081596	     44.98439836	    106.64868309	    -17.46483473	     -0.49949814	    -17.68673674	     17.61494602	     97.75458220
      0.50000000	     -2.52558520	     -4.50742994	     -0.12350344	      0.47797164	      0.94475563	     -0.17401479	    -11.58457782	     10.36694842	      4.47415620	      0.71499107	      0.01247895	     14.93899260	     -2.57153463	     -6.92936600	     28.40608427	     -4.36224469	     -9.74575369	      3.14096639	      0.05482021	      1.31206054	      6.13288329	     -6.92936600	     -1.79125140	      4.22436755	     14.53358973	     14.75590442	     -7.09340802	    -12.16654205	     45.77000129	    106.68436173	    -18.26797999	     -0.58078116	    -17.94033415	     17.33682175	     97.70004510
      0.51000000	     -2.51030132	     -4.57838380	     -0.32558314	      0.48849446	      0.94290466	     -0.17468163	    -12.25547477	     10.28724171	      4.31087859	      0.85352851	      0.01489688	     15.66518556	     -1.62149238	     -6.98419616	     28.64403926	     -4.54119614	    -11.86918191	      2.87978215	      0.05026168	      2.91616590	     10.19224237	     -6.98419616	     -1.90638272	      4.24050202	     14.88183862	     14.96345094	     -7.04100791	    -12.08385627	     46.66636921	    106.87815010	    -18.96510980	     -0.54130824	    -19.64199251	     17.60922627	     97.92595489
      0.52000000	     -2.67315326	     -4.66716678	     -0.52837877	      0.49897232	      0.94080489	     -0.17538327	    -12.69758529	     10.23932414	      4.55189666	      1.05505278	      0.01841414	     15.84513409	     -1.61812554	     -6.98842385	     28.86645754	     -4.59481924	    -11.56590857	      2.74239758	      0.04786387	      3.29610515	     10.31791376	     -6.98842385	     -1.77737671	      4.29905907	     15.03310225	     15.27149660	     -6.88544158	    -11.87412058	     47.25692446	    106.86593799	    -19.65175607	     -0.63859462	    -19.78479367	     17.34038153	     97.88051725
      0.53000000	     -2.74399508	     -4.72219440	     -0.76556252	      0.50958145	      0.93889350	     -0.17603705	    -13.19209229	     10.14111631	      4.82638772	      1.35385446	      0.02362922	     16.19130105	     -1.64421360	     -6.99804353	     29.00447059	     -4.68084078	    -10.97799191	      3.21297304	      0.05607696	      3.84535801	     10.01981431	     -6.99804353	     -1.78045647	      4.29089014	     15.36626779	     15.38427772	     -6.86133110	    -11.57458725	     47.98636261	    106.86251750	    -20.17152909	     -0.77000905	    -20.05250860	     17.09434308	     97.87277332
      0.54000000	     -2.86886117	     -4.72219110	     -1.01288692	      0.52032327	      0.93699856	     -0.17675148	    -13.53139933	      9.98001207	      4.85425137	      1.83651860	      0.03205330	     16.47623878	     -1.50922752	     -7.02810370	     29.13365089	     -4.67687384	     -9.84249729	      3.94185753	      0.06879839	      3.72769295	      8.41443283	     -7.02810370	     -1.71690592	      4.21122437	     15.62877070	     15.49360979	     -6.67974522	    -11.51005522	     48.64563145	    106.86840031	    -20.68491650	     -0.85974142	    -20.48800807	     16.87916306	     98.07640138
